<!-- Generator: Adobe Illustrator 19.2.1, SVG Export Plug-In  -->
<svg version="1.1"
	 xmlns="http://www.w3.org/2000/svg" xmlns:xlink="http://www.w3.org/1999/xlink" xmlns:a="http://ns.adobe.com/AdobeSVGViewerExtensions/3.0/"
	 x="0px" y="0px" width="42.376px" height="63.359px" viewBox="0 0 42.376 63.359"
	 style="enable-background:new 0 0 42.376 63.359;" xml:space="preserve">
<style type="text/css">
	.st0{fill:#756497;}
</style>
<defs>
</defs>
<g>
	<path class="st0" d="M37.688,36.895v7.187h-33v-7.187c0-0.965,0.785-1.75,1.75-1.75h29.496
		C36.903,35.141,37.688,35.93,37.688,36.895z M7.868,50.125l0.363-4.836c0-0.254,0.207-0.457,0.457-0.457
		c0.254,0,0.457,0.207,0.461,0.488l0.363,4.778c0,0.453-0.367,0.82-0.82,0.82C8.239,50.918,7.872,50.551,7.868,50.125z
		 M36.938,56.922c0,0.965-0.785,1.75-1.754,1.75H7.188c-0.965,0-1.75-0.785-1.75-1.75v-12.09h2.133
		c-0.055,0.137-0.086,0.277-0.086,0.43l-0.363,4.836c0,0.867,0.703,1.57,1.57,1.57s1.57-0.703,1.57-1.602l-0.363-4.777
		c0-0.164-0.031-0.316-0.09-0.457h27.133v12.09H36.938z M3.938,36.895v7.562c0,0.207,0.168,0.375,0.375,0.375h0.375v12.09
		c0,1.379,1.121,2.5,2.5,2.5h27.996c1.379,0,2.504-1.121,2.504-2.5v-12.09h0.375c0.207,0,0.375-0.168,0.375-0.375v-7.562
		c0-1.379-1.121-2.5-2.504-2.5H6.438C5.059,34.391,3.938,35.516,3.938,36.895z"/>
	<path class="st0" d="M40.876,25.574v32.41c0,0.914-0.333,1.743-0.864,2.407c0.086-0.289,0.149-0.59,0.149-0.907l0.004-35.367
		c0-8.777-7.141-15.918-15.922-15.918h-6.11c-8.777,0-15.922,7.141-15.922,15.918v35.367c0,0.317,0.063,0.618,0.149,0.907
		c-0.531-0.664-0.863-1.493-0.863-2.407V24.117c0-9.172,7.461-16.633,16.632-16.633h6.11c9.172,0,16.633,7.461,16.633,16.633h0.027
		C40.876,24.379,40.876,24.824,40.876,25.574z M39.786,59.484c0,0.629-0.215,1.204-0.571,1.672c-0.629,0.442-1.39,0.707-2.218,0.707
		H5.376c-0.829,0-1.59-0.265-2.219-0.707c-0.352-0.465-0.571-1.043-0.571-1.672V24.117c0-8.57,6.973-15.543,15.547-15.543h6.11
		c8.57,0,15.547,6.973,15.547,15.543L39.786,59.484z M6.622,1.898h6.429v5.61c-2.406,0.738-4.586,1.98-6.425,3.613V1.898H6.622z
		 M23.317,6.734c-0.567-2.484-1.274-3.765-1.82-4.519c0.304-0.371,0.66-0.633,1.074-0.711c0.449,0.125,1.922,0.891,2.953,5.285
		c-0.422-0.031-0.848-0.055-1.281-0.055H23.317z M21.055,2.895c0.465,0.703,1.02,1.839,1.492,3.839h-2.554
		C20.11,5.707,20.43,4.074,21.055,2.895z M18.133,6.734c-0.351,0-0.699,0.024-1.047,0.047C17.278,5.109,18,1.758,19.661,1.477h1.5
		c-0.149,0.148-0.285,0.32-0.414,0.5c-0.024,0.027-0.043,0.054-0.055,0.086c-1,1.488-1.352,3.796-1.449,4.671H18.133z M29.329,1.898
		h6.429v9.223c-1.84-1.629-4.019-2.875-6.425-3.613v-5.61H29.329z M37.231,11.469V1.547c0-0.621-0.504-1.125-1.125-1.125h-7.125
		c-0.621,0-1.125,0.504-1.125,1.125v4.801c-0.32-0.067-0.637-0.121-0.957-0.168C25.489,0.461,23.141,0,22.43,0
		c-0.004,0-0.008,0-0.015,0h-2.758c-0.063,0-0.125,0.004-0.184,0.016c-2.683,0.445-3.535,4.234-3.797,6.136
		c-0.336,0.059-0.742,0.129-1.152,0.211V1.547c0-0.621-0.504-1.125-1.125-1.125H6.274c-0.621,0-1.125,0.504-1.125,1.125v9.918
		C1.825,14.871,0,19.344,0,24.117v33.867c0,2.965,2.411,5.375,5.379,5.375H37c2.965,0,5.376-2.41,5.376-5.375
		c0-0.336,0-33.41,0-33.855c0-0.004,0-0.008,0-0.008C42.376,19.348,40.551,14.875,37.231,11.469z"/>
</g>
</svg>