<!-- Generator: Adobe Illustrator 19.2.1, SVG Export Plug-In  -->
<svg version="1.1"
	 xmlns="http://www.w3.org/2000/svg" xmlns:xlink="http://www.w3.org/1999/xlink" xmlns:a="http://ns.adobe.com/AdobeSVGViewerExtensions/3.0/"
	 x="0px" y="0px" width="75px" height="56.57px" viewBox="0 0 75 56.57" style="enable-background:new 0 0 75 56.57;"
	 xml:space="preserve">
<style type="text/css">
	.st0{fill:#77C1B0;}
</style>
<defs>
</defs>
<path class="st0" d="M71.309,11.066c0,0-3.688-7.379-15.989-7.379c-12.808,0-14.949,7.305-17.734,7.305s-4.578-7.305-17.934-7.305
	c-10.187,0-15.984,7.379-15.984,7.379v40.586c0,0.766,0.461,1.231,1.23,1.231c0,0,3.36-6.766,14.758-6.766
	c12.422,0,17.934,6.637,17.934,6.637s5.332-6.637,17.73-6.637c11.172,0,14.758,6.766,14.758,6.766c0.77,0,1.231-0.461,1.231-1.231
	V11.066z M72.539,56.57c-6.762,0-5.328-6.765-17.219-6.765c-11.89,0-15.222,6.765-17.832,6.765c-2.609,0-5.945-6.765-17.832-6.765
	c-11.886,0-10.461,6.765-17.218,6.765C1.195,56.57,0,55.68,0,54.144V9.601C0,9.601,7.258,0,19.656,0C32.059,0,37.59,6.82,37.59,6.82
	S42.82,0,55.324,0C70.746,0,75,9.836,75,9.836v44.277C75,55.648,73.934,56.57,72.539,56.57z"/>
<rect x="36.262" y="14.449" class="st0" width="2.461" height="28.902"/>
</svg>