<!-- Generator: Adobe Illustrator 19.2.1, SVG Export Plug-In  -->
<svg version="1.1"
	 xmlns="http://www.w3.org/2000/svg" xmlns:xlink="http://www.w3.org/1999/xlink" xmlns:a="http://ns.adobe.com/AdobeSVGViewerExtensions/3.0/"
	 x="0px" y="0px" width="35.927px" height="57.237px" viewBox="0 0 35.927 57.237"
	 style="enable-background:new 0 0 35.927 57.237;" xml:space="preserve">
<style type="text/css">
	.st0{fill:#756497;}
</style>
<defs>
</defs>
<g>
	<path class="st0" d="M8.246,47.301c-1.017-0.756-2.22-1.708-3.684-2.914c-1.461-1.145-2.729-2.735-3.813-4.958
		c-0.061-0.254,0.003,0.576,0.325,2.349c0.311,1.844,0.501,2.925,0.634,3.369c0.061,0.379,1.202,0.83,3.49,1.529
		C7.483,47.244,8.435,47.498,8.246,47.301z"/>
	<path class="st0" d="M9.012,3.373c2.854-1.457,5.775-2.091,8.757-1.894c3.108,0.244,6.036,1.325,8.889,3.298
		c2.789,1.965,5.331,4.504,7.748,7.679c-0.953-3.111-3.236-5.968-6.923-8.509c-3.681-2.539-6.981-3.87-9.9-3.932
		c-2.857-0.125-5.974,0.57-9.268,2.159C5.073,3.695,3.104,6.05,2.539,9.029C3.928,6.806,6.086,4.962,9.012,3.373z"/>
	<path class="st0" d="M20.689,50.864c-2.223,0-4.006-0.065-5.334-0.316c-1.264-0.254-2.477-0.573-3.62-0.891
		c-1.078-0.383-2.352-0.827-3.741-1.335c-1.404-0.444-3.308-0.884-5.847-1.328c0.129,0.444,0.254,0.884,0.383,1.264
		c0.061,0.322,0.125,0.637,0.251,0.952c1.589-0.253,4.192,0.254,7.808,1.525c3.497,1.2,7.113,1.715,10.797,1.586
		c0.953-0.006,1.904,0.567,2.986,1.648c1.078,1.02,2.159,2.155,3.297,3.24c0.19,0.122,0.766-0.135,1.776-0.83
		c-1.389-1.017-2.854-2.155-4.439-3.558C23.421,51.436,22.022,50.796,20.689,50.864z"/>
	<path class="st0" d="M7.93,6.552c3.173-1.843,6.345-2.541,9.395-2.159c2.856,0.383,6.097,1.654,9.583,3.874
		c3.498,2.155,6.287,5.019,8.446,8.571c-0.064-1.332-0.759-2.793-2.094-4.386c-1.268-1.582-2.857-3.046-4.697-4.443
		c-1.844-1.396-3.749-2.542-5.782-3.487c-1.959-0.956-3.738-1.4-5.199-1.529C13.837,2.868,10.349,3.756,7.042,5.79
		c-3.236,1.969-5.202,4.317-5.771,7.113C2.402,10.548,4.626,8.457,7.93,6.552z"/>
	<path class="st0" d="M7.608,12.645c3.365-1.65,6.477-2.352,9.334-2.098c7.934,0.83,14.281,5.717,18.979,14.543
		c-0.061-0.512-0.061-0.888-0.061-1.329c0-0.454-0.062-0.894-0.19-1.467c-2.094-3.43-4.761-6.47-8.066-9.137
		c-3.301-2.613-6.856-4.071-10.662-4.318c-3.05-0.193-6.226,0.505-9.655,2.281c-3.298,1.712-5.646,4.196-6.978,7.364
		c0.003,0.83,0,1.525-0.068,1.969C1.708,16.834,4.182,14.228,7.608,12.645z"/>
	<path class="st0" d="M7.419,9.663c3.365-1.969,6.472-2.792,9.526-2.473c3.108,0.379,6.215,1.518,9.394,3.552
		c3.111,1.969,6.222,5.337,9.337,10.095c0.061-1.142-0.444-2.473-1.464-4.192c-1.078-1.586-2.474-3.172-4.189-4.758
		c-1.772-1.589-3.68-2.921-5.903-4.067c-2.22-1.142-4.508-1.775-6.792-2.029C14.6,5.539,11.17,6.359,7.046,8.324
		c-4.067,1.912-6.226,4.64-6.351,8.259C1.833,13.981,4.118,11.632,7.419,9.663z"/>
	<path class="st0" d="M20.689,33.532c-0.762,0.505-1.972-0.064-3.68-1.844c-1.714-1.84-2.356-2.918-1.904-3.423
		c0.505-0.515,1.776,0.121,3.741,1.772C20.751,31.756,21.384,32.895,20.689,33.532z M22.022,31.692
		c-1.271-1.332-2.664-2.539-4.125-3.68c-1.525-1.081-2.668-1.589-3.491-1.522c-0.573,0.187-0.823,0.763-0.763,1.705
		c0.062,0.955,0.448,1.779,1.143,2.61c1.46,1.772,2.606,2.918,3.43,3.362c0.827,0.443,1.522,0.633,2.155,0.633
		c0.641-0.064,1.271-0.064,1.908-0.125c0.638-0.065,1.461,0.251,2.603,1.016c0.698,0.512,0.766,0.319,0.062-0.637
		C24.245,34.104,23.292,33.027,22.022,31.692z"/>
	<path class="st0" d="M26.024,15.696c-3.243-2.291-7.181-3.437-11.811-3.498c-4.572,0-8.443,1.973-11.679,6.032
		c-0.57,0.698-1.013,1.464-1.397,2.352c-0.383,0.828-0.763,1.648-1.017,2.599C0.057,25.147,0,27.059,0,28.961
		c0,1.904,0.121,3.802,0.315,5.839c0.505,1.522,1.268,2.985,2.224,4.375c0.884,1.464,1.901,2.793,3.046,4.067
		c1.902,2.098,4.315,3.748,7.303,4.957c2.915,1.268,5.331,1.644,7.236,1.268c1.84-0.383,3.43,0.187,4.823,1.651
		c1.274,1.522,3.05,3.046,5.266,4.507l1.081-1.271c-2.159-1.339-3.874-2.795-5.145-4.446c-1.335-1.586-3.233-2.281-5.839-2.094
		c-2.983,0.197-5.586-0.315-7.808-1.525c-2.155-1.138-4.128-2.603-5.904-4.439c-2.982-3.111-4.758-6.727-5.327-10.984
		c-0.512-4.249,0.379-8.063,2.66-11.492c2.413-3.616,5.771-5.46,10.164-5.586c4.372-0.125,8.184,0.885,11.36,3.169
		c3.175,2.223,5.209,4.127,6.097,5.717c0.823,1.524,2.284,3.684,4.253,6.541l0.122-2.478c-1.969-2.535-3.234-4.382-3.745-5.463
		C31.738,20.135,29.64,18.295,26.024,15.696z"/>
	<path class="st0" d="M25.262,17.976c-3.047-2.094-6.608-3.11-10.726-3.175c-4.131-0.007-7.368,1.719-9.781,5.209
		c-2.477,3.616-3.365,7.243-2.667,10.855c0.698,3.555,2.477,6.923,5.463,10.1c1.712,1.901,4.064,3.487,6.985,4.758
		c2.857,1.274,5.08,1.461,6.73,0.83c1.136-0.451,2.661,0.251,4.569,2.03c1.962,1.772,3.87,3.426,5.904,4.822l0.698-1.524
		c-1.966-1.136-3.939-2.6-5.904-4.508c-2.034-1.776-3.684-2.538-5.019-2.223c-2.67,0.569-5.145,0.254-7.3-1.013
		c-2.159-1.271-4-2.736-5.653-4.386c-2.789-2.85-4.379-5.9-4.884-9.137c-0.512-3.301,0.251-6.409,2.349-9.588
		c2.155-3.236,5.077-4.826,8.886-4.636c3.684,0.129,6.985,1.081,9.842,2.922c2.921,1.904,4.891,3.999,5.907,6.287
		c0.952,2.219,2.664,4.629,5.144,7.296v-2.159c-2.162-2.539-3.622-4.759-4.385-6.531C30.657,22.422,28.559,20.393,25.262,17.976z"/>
	<path class="st0" d="M27.543,38.48c-2.603-2.03-4.25-2.914-4.884-2.535c-0.695,0.38-1.837,0.38-3.494-0.125
		c-1.772-0.512-3.62-1.844-5.392-4.131c-1.772-2.284-1.905-4.253-0.322-5.835c0.576-0.573,1.46-0.638,2.606-0.19
		c1.138,0.383,2.159,1.013,3.236,1.776c1.142,0.891,2.352,2.094,3.62,3.558c1.268,1.458,2.349,2.793,3.234,4.125
		c0.827,1.271,1.46,2.217,1.843,2.983C28.305,38.863,28.183,38.992,27.543,38.48z M31.166,39.432
		c-0.96-0.315-2.349-2.091-4.189-5.392c-1.017-1.712-2.288-3.555-3.939-5.531c-1.582-1.901-3.236-3.23-4.886-3.992
		c-1.529-0.57-2.729-0.895-3.616-0.828c-0.956,0.065-1.779,0.759-2.67,2.034c-0.763,1.074-0.888,2.413-0.444,3.935
		c0.505,1.461,1.335,2.854,2.474,4.189c1.084,1.271,2.417,2.284,3.874,3.108c1.464,0.766,2.793,0.895,3.938,0.641
		c1.207-0.316,2.414-0.122,3.68,0.573c1.207,0.759,2.86,1.582,4.955,2.667c1.587,0.891,2.539,1.522,2.979,2.094
		c0.318,0.444,0.763,1.074,1.207,1.712c0.064-0.315,0.128-0.64,0.132-0.953c0-0.258,0.061-0.637,0.061-1.2
		C33.26,40.771,32.114,39.818,31.166,39.432z"/>
	<path class="st0" d="M31.989,35.562c-1.582-1.908-2.921-3.999-4.125-6.287c-1.142-2.288-2.793-4.131-4.887-5.589
		c-1.844-1.264-3.616-2.28-5.334-2.982c-1.654-0.633-3.495-0.512-5.589,0.318c-1.776,0.892-3.115,2.732-4.002,5.586
		c-0.888,2.857-0.122,5.463,2.162,7.808c2.217,2.345,3.935,3.938,5.267,4.758c1.202,0.83,2.351,1.278,3.362,1.464
		c0.891,0.128,1.846,0.193,2.795,0.193c0.953-0.061,2.224,0.187,3.81,0.823c1.65,0.638,3.108,1.522,4.379,2.671
		c1.271,1.078,2.61,2.091,4.125,3.108l0.254-1.587c-1.082-1.399-2.729-2.728-5.016-4.07c-2.287-1.325-4.189-2.087-5.714-2.345
		c-2.663-0.38-4.385-0.508-5.083-0.508c-0.759,0-2.474-1.207-5.266-3.806c-2.922-2.667-4.003-5.27-3.433-7.747
		c0.64-2.478,1.65-4.064,3.179-4.826c1.65-0.701,3.233-0.759,4.758-0.122c1.589,0.634,3.05,1.454,4.443,2.6
		c1.911,1.524,3.491,3.362,4.704,5.52c1.271,2.03,2.603,4.066,3.996,6.097c0.576,0.64,1.274,1.271,2.162,2.098
		c0.884,0.695,1.586,1.335,2.159,1.84l0.128-2.219c-0.508-0.316-1.019-0.638-1.589-1.146C33.066,36.765,32.501,36.26,31.989,35.562z
		"/>
	<path class="st0" d="M24.055,20.322c-2.606-2.034-5.588-2.979-9.018-3.04c-3.365,0-6.097,1.522-8.194,4.504
		c-2.217,3.237-2.854,6.287-2.092,9.14c0.759,2.793,2.414,5.592,4.948,8.381c1.589,1.651,3.562,2.919,5.843,3.874
		c2.288,0.888,4.192,1.081,5.721,0.695c1.647-0.444,3.616,0.318,5.835,2.352c2.224,1.972,4.189,3.559,6.032,4.754l0.448-1.647
		c-1.779-1.078-3.684-2.599-5.65-4.504c-1.969-1.909-4.002-2.86-6.097-2.732c-2.413,0.193-4.443-0.128-6.097-0.827
		c-1.715-0.763-3.237-1.844-4.698-3.236c-2.416-2.542-3.938-5.013-4.639-7.426c-0.631-2.416,0.003-5.016,1.844-7.808
		c1.904-2.918,4.317-4.128,7.174-3.81c2.854,0.322,5.518,1.271,7.931,2.851c2.606,1.718,4.829,4.253,6.601,7.686
		c1.844,3.362,3.623,5.585,5.525,6.856v-1.847c-1.969-1.901-3.555-4.185-4.958-6.913C29.132,24.961,26.973,22.545,24.055,20.322z"/>
</g>
</svg>