<!-- Generator: Adobe Illustrator 19.2.1, SVG Export Plug-In  -->
<svg version="1.1"
	 xmlns="http://www.w3.org/2000/svg" xmlns:xlink="http://www.w3.org/1999/xlink" xmlns:a="http://ns.adobe.com/AdobeSVGViewerExtensions/3.0/"
	 x="0px" y="0px" width="33.391px" height="68.391px" viewBox="0 0 33.391 68.391"
	 style="enable-background:new 0 0 33.391 68.391;" xml:space="preserve">
<style type="text/css">
	.st0{fill:#756497;}
</style>
<defs>
</defs>
<g>
	<path class="st0" d="M33.391,13.629c0-2.304-1.875-4.179-4.18-4.179c-0.75,0-1.465,0.195-2.093,0.562v-2.43
		c0.007-0.101,0.011-0.191,0.011-0.273c0-2.305-1.875-4.18-4.179-4.18c-0.75,0-1.465,0.196-2.094,0.563
		C20.614,1.618,18.844,0,16.703,0c-2.144,0-3.914,1.621-4.152,3.703c-0.633-0.371-1.355-0.57-2.109-0.57
		c-2.305,0-4.18,1.875-4.18,4.18v13.121c-1.051-0.883-2.391-1.387-3.785-1.387C1.114,19.047,0,20.157,0,21.524v18.668
		c0,4.957,2.168,9.418,5.598,12.48c0.043,0.059,0.094,0.11,0.148,0.16c0.168,0.149,0.344,0.289,0.516,0.43v14.363
		c0,0.411,0.449,0.746,1.008,0.762h0.055c0.011,0,0.023,0,0.035,0h0.004c0.558-0.016,1.011-0.351,1.011-0.762L8.364,54.696
		c0.839,0.488,1.722,0.902,2.644,1.238C11.129,55.977,11.254,56,11.375,56c0.442,0,0.852-0.273,1.012-0.707
		c0.203-0.558-0.086-1.175-0.644-1.379c-0.321-0.117-0.633-0.246-0.946-0.386c0.004-0.008,0.004-0.016,0.004-0.016
		s-0.039-0.008-0.101-0.027c-1.278-0.582-2.465-1.344-3.536-2.278c-0.066-0.058-0.14-0.105-0.218-0.144
		c-2.973-2.68-4.852-6.559-4.852-10.875V24.985l0.004-3.469c0-0.211,0.172-0.379,0.383-0.379c2.086,0,3.785,1.699,3.785,3.785v8.137
		c0,0.578,0.469,1.047,1.047,1.047l0,0c4.652,0,8.437,3.785,8.437,8.441c0,0.578,0.469,1.047,1.047,1.047
		c0.578,0,1.047-0.469,1.047-1.047c0-5.445-4.129-9.953-9.488-10.484V7.305c0-1.148,0.933-2.082,2.082-2.082
		c1.148,0,2.082,0.934,2.082,2.082c0,0.074-0.004,0.145-0.016,0.25l0.008,18.656c0,0.571,0.461,1.039,1.031,1.047l0.032,0.004
		l0.019-0.004c0.574-0.008,1.039-0.472,1.039-1.047V4.379l-0.004-0.058c-0.004-0.047-0.008-0.098-0.008-0.145
		c0-1.148,0.934-2.082,2.082-2.082c1.149,0,2.083,0.934,2.083,2.082c0,0.051-0.004,0.102-0.008,0.16L18.774,4.36v2.679
		c-0.008,0.09-0.008,0.18-0.008,0.27c0,0.082,0.004,0.172,0.008,0.238v18.668c0,0.578,0.469,1.047,1.047,1.047
		s1.047-0.469,1.047-1.047V7.125c0.089-1.07,1-1.902,2.074-1.902c1.148,0,2.082,0.934,2.082,2.082c0,0.051-0.004,0.098-0.008,0.16
		v20.496c0,0.567,0.449,1.028,1.012,1.047h0.054c0.012,0,0.024,0,0.036,0h0.003c0.559-0.019,1.012-0.48,1.012-1.047V13.829
		l-0.004-0.047c-0.004-0.051-0.008-0.098-0.008-0.149c0-1.148,0.934-2.082,2.082-2.082c1.149,0,2.083,0.934,2.083,2.082
		c0,0.051-0.004,0.102-0.008,0.16v26.399c0,4.148-1.739,7.894-4.516,10.558c-0.082,0.043-0.16,0.094-0.23,0.161
		c-1.426,1.328-3.075,2.335-4.891,3.003c-0.559,0.204-0.844,0.821-0.641,1.379C21.161,55.731,21.571,56,22.012,56
		c0.121,0,0.246-0.019,0.367-0.066c0.922-0.336,1.797-0.754,2.637-1.238v12.933c0,0.41,0.449,0.746,1.012,0.762h0.054
		c0.012,0,0.024,0,0.036,0h0.003c0.559-0.016,1.012-0.352,1.012-0.762l-0.019-14.375c0.304-0.246,0.601-0.496,0.89-0.765
		c0.028-0.024,0.047-0.055,0.071-0.078c3.261-3.055,5.3-7.399,5.3-12.215V13.911C33.387,13.801,33.391,13.711,33.391,13.629z"/>
</g>
</svg>