<svg id="Camada_1" data-name="Camada 1" xmlns="http://www.w3.org/2000/svg" viewBox="0 0 100.881 105.959"><title>ic-1</title><path d="M104.364,72.744h-12A1.334,1.334,0,0,1,91.03,71.41v-12a1.334,1.334,0,0,1,2.278-.945l12,12A1.331,1.331,0,0,1,104.364,72.744ZM93.7,70.08h7.448L93.7,62.628V70.08Z" transform="translate(-25.505 -32.119)" fill="#5db69f"/><path d="M96.5,111.911a1.322,1.322,0,0,1-.8-0.262l-6.418-4.778a1.331,1.331,0,0,1-.275-1.86l26.28-35.723a1.326,1.326,0,0,1,1.906-.251l6.664,5.333a1.335,1.335,0,0,1,.233,1.842L97.565,111.382A1.331,1.331,0,0,1,96.5,111.911Zm-4.558-6.387,4.291,3.194,24.951-33.076-4.567-3.656Z" transform="translate(-25.505 -32.119)" fill="#5db69f"/><path d="M121.656,75.6a1.323,1.323,0,0,1-.826-0.288l-4.045-3.189a1.333,1.333,0,0,1-.229-1.86l3.1-4.042a2.98,2.98,0,0,1,4.143-.567l1.4,1.051a2.985,2.985,0,0,1,.619,4.138l-3.084,4.211a1.328,1.328,0,0,1-.9.534A1.238,1.238,0,0,1,121.656,75.6Zm-2.186-4.757,1.927,1.521,2.266-3.1a0.309,0.309,0,0,0-.067-0.427l-1.4-1.055a0.313,0.313,0,0,0-.428.06Z" transform="translate(-25.505 -32.119)" fill="#5db69f"/><path d="M101.734,82.077a1.33,1.33,0,0,1-1.064-2.131l7.964-10.667a1.325,1.325,0,0,1,1.389-.5l5.329,1.334a1.334,1.334,0,0,1-.644,2.589l-4.469-1.118-7.434,9.954a1.329,1.329,0,0,1-1.071.535" transform="translate(-25.505 -32.119)" fill="#5db69f"/><path d="M89.584,116.736a1.308,1.308,0,0,1-.8-0.267l-2.14-1.588a1.332,1.332,0,0,1-.47-1.488l2.638-8.01a1.333,1.333,0,0,1,2.064-.653l6.418,4.778a1.334,1.334,0,0,1-.034,2.166l-6.918,4.82A1.337,1.337,0,0,1,89.584,116.736Zm-0.572-3.423,0.6,0.445,4.613-3.214-3.453-2.568Z" transform="translate(-25.505 -32.119)" fill="#5db69f"/><path d="M87.03,118.08a1.335,1.335,0,0,1-1.1-2.093l1.487-2.14a1.334,1.334,0,1,1,2.191,1.521L88.128,117.5a1.345,1.345,0,0,1-1.1.577" transform="translate(-25.505 -32.119)" fill="#5db69f"/><path d="M96.43,111.442a1.33,1.33,0,0,1-.746-0.233l-6.349-4.3a1.331,1.331,0,0,1-.564-0.881,1.305,1.305,0,0,1,.246-1.017L101.759,87.9A1.326,1.326,0,0,1,103.6,87.6l6.464,4.575a1.33,1.33,0,0,1,.293,1.9L97.493,110.916A1.335,1.335,0,0,1,96.43,111.442Zm-4.444-5.96,4.151,2.812,11.255-14.738-4.274-3.025Z" transform="translate(-25.505 -32.119)" fill="#5db69f"/><path d="M99.594,107.726a1.306,1.306,0,0,1-.813-0.28l-6.324-4.867a1.334,1.334,0,0,1,1.627-2.114l6.324,4.871a1.333,1.333,0,0,1-.813,2.389" transform="translate(-25.505 -32.119)" fill="#5db69f"/><path d="M102.873,103.359a1.323,1.323,0,0,1-.8-0.264l-6.418-4.782a1.332,1.332,0,0,1,1.593-2.135l6.418,4.779a1.334,1.334,0,0,1-.8,2.4" transform="translate(-25.505 -32.119)" fill="#5db69f"/><path d="M106.084,98.945a1.33,1.33,0,0,1-.779-0.249l-6.444-4.643a1.334,1.334,0,0,1,1.559-2.166l6.443,4.644a1.334,1.334,0,0,1-.78,2.414" transform="translate(-25.505 -32.119)" fill="#5db69f"/><path d="M75.03,86.08h-16a1.334,1.334,0,1,1,0-2.669h16a1.334,1.334,0,0,1,0,2.669" transform="translate(-25.505 -32.119)" fill="#5db69f"/><path d="M75.03,102.08h-16a1.334,1.334,0,1,1,0-2.669h16a1.334,1.334,0,0,1,0,2.669" transform="translate(-25.505 -32.119)" fill="#5db69f"/><path d="M75.03,118.08h-16a1.334,1.334,0,1,1,0-2.669h16a1.334,1.334,0,0,1,0,2.669" transform="translate(-25.505 -32.119)" fill="#5db69f"/><path d="M85.7,87.409a1.33,1.33,0,0,1-.941-0.389l-2.669-2.664a1.333,1.333,0,0,1,1.886-1.885L85.607,84.1l5.731-6.875a1.334,1.334,0,1,1,2.05,1.707l-6.667,8a1.331,1.331,0,0,1-.966.478H85.7" transform="translate(-25.505 -32.119)" fill="#5db69f"/><path d="M85.7,103.409a1.33,1.33,0,0,1-.941-0.389l-2.669-2.664a1.333,1.333,0,0,1,1.886-1.885l1.635,1.635,5.731-6.88a1.334,1.334,0,1,1,2.05,1.707l-6.667,8a1.331,1.331,0,0,1-.966.478H85.7" transform="translate(-25.505 -32.119)" fill="#5db69f"/><path d="M104.364,138.078h-56a1.335,1.335,0,0,1-1.335-1.334V59.413a1.334,1.334,0,0,1,1.335-1.334h44a1.349,1.349,0,0,1,.945.389l12,12a1.32,1.32,0,0,1,.394.941V86.393a1.334,1.334,0,0,1-.262.792L91.283,106.422l-2.271,6.892,0.6,0.445,5.951-4.151,7.74-10.251a1.327,1.327,0,0,1,1.487-.466,1.345,1.345,0,0,1,.911,1.267v36.588A1.335,1.335,0,0,1,104.364,138.078ZM49.7,135.413H103.03V104.138l-5.465,7.244a1.349,1.349,0,0,1-.3.293l-6.918,4.82a1.328,1.328,0,0,1-1.559-.026l-2.14-1.588a1.339,1.339,0,0,1-.47-1.488l2.638-8.01a1.379,1.379,0,0,1,.191-0.373L103.03,85.957V71.965L91.808,60.744H49.7v74.67Zm46.8-24.832h0Z" transform="translate(-25.505 -32.119)" fill="#5db69f"/><path d="M47.505,74.119a20,20,0,1,1,20-20A20.023,20.023,0,0,1,47.505,74.119Z" transform="translate(-25.505 -32.119)" fill="#fff"/><path d="M47.505,36.119a18,18,0,1,1-18,18,18,18,0,0,1,18-18m0-4a22,22,0,1,0,22,22,22.025,22.025,0,0,0-22-22h0Z" transform="translate(-25.505 -32.119)" fill="#313466"/><path d="M49.9,45.094a1.63,1.63,0,0,1,.461,1.181v15.69a1.536,1.536,0,0,1-.515,1.18,1.809,1.809,0,0,1-1.277.475,1.711,1.711,0,0,1-1.248-.475,1.576,1.576,0,0,1-.488-1.18V49.1l-1.683,1.032a1.666,1.666,0,0,1-.869.244,1.51,1.51,0,0,1-1.153-.516,1.644,1.644,0,0,1-.475-1.14,1.54,1.54,0,0,1,.231-0.815,1.673,1.673,0,0,1,.611-0.6l4.1-2.443a2.481,2.481,0,0,1,1.166-.244A1.527,1.527,0,0,1,49.9,45.094Z" transform="translate(-25.505 -32.119)" fill="#313466"/></svg>