<svg id="Camada_1" data-name="Camada 1" xmlns="http://www.w3.org/2000/svg" viewBox="0 0 114 112.865"><title>ic-2</title><path d="M200.112,126.364l-2.426-.968c-15.632-6.256-29.463-6.854-41.112-1.791l-0.337.145h-3.907V54.732h3.234a66.936,66.936,0,0,1,43.373.1l1.176,0.417v71.113Zm-26.645-9.7a67.157,67.157,0,0,1,23.106,4.512V57.764a63.4,63.4,0,0,0-40.112.4l-0.283.107h-0.309v61.783A45.639,45.639,0,0,1,173.467,116.661Z" transform="translate(-130.329 -32.119)" fill="#5db69f"/><path d="M196.573,126.322V55.24l1.192-.412a67.388,67.388,0,0,1,43.346-.1h3.219V123.75h-3.909l-0.359-.166c-10.831-5.073-24.655-4.459-41.089,1.817Zm3.539-68.547v63.44c15.952-5.662,29.617-6.063,40.678-1.192V58.272h-0.268l-0.278-.1A63.911,63.911,0,0,0,200.112,57.775Z" transform="translate(-130.329 -32.119)" fill="#5db69f"/><path d="M187.725,70.659h-15.93a1.77,1.77,0,1,1,0-3.539h15.93a1.77,1.77,0,0,1,0,3.539" transform="translate(-130.329 -32.119)" fill="#5db69f"/><path d="M164.716,70.659a1.753,1.753,0,1,1,1.256-.513,1.854,1.854,0,0,1-1.256.513" transform="translate(-130.329 -32.119)" fill="#5db69f"/><path d="M187.725,79.507H164.716a1.77,1.77,0,1,1,0-3.539h23.009a1.77,1.77,0,0,1,0,3.539" transform="translate(-130.329 -32.119)" fill="#5db69f"/><path d="M180.647,88.353h-15.93a1.77,1.77,0,1,1,0-3.539h15.93a1.77,1.77,0,1,1,0,3.539" transform="translate(-130.329 -32.119)" fill="#5db69f"/><path d="M187.725,88.353a1.777,1.777,0,1,1,1.77-1.77,1.873,1.873,0,0,1-.513,1.256,1.848,1.848,0,0,1-1.256.513" transform="translate(-130.329 -32.119)" fill="#5db69f"/><path d="M187.725,97.2h-15.93a1.77,1.77,0,1,1,0-3.539h15.93a1.77,1.77,0,1,1,0,3.539" transform="translate(-130.329 -32.119)" fill="#5db69f"/><path d="M164.716,97.2a1.753,1.753,0,0,1-1.77-1.77,1.77,1.77,0,0,1,3.026-1.256,1.794,1.794,0,0,1,0,2.513,1.848,1.848,0,0,1-1.256.513" transform="translate(-130.329 -32.119)" fill="#5db69f"/><path d="M187.725,106.054H164.716a1.77,1.77,0,1,1,0-3.539h23.009a1.77,1.77,0,0,1,0,3.539" transform="translate(-130.329 -32.119)" fill="#5db69f"/><path d="M224.89,79.507H208.96a1.77,1.77,0,1,1,0-3.539h15.93a1.77,1.77,0,1,1,0,3.539" transform="translate(-130.329 -32.119)" fill="#5db69f"/><path d="M233.738,79.507a1.755,1.755,0,1,1,1.256-.515,1.849,1.849,0,0,1-1.256.515" transform="translate(-130.329 -32.119)" fill="#5db69f"/><path d="M233.738,70.659H208.96a1.77,1.77,0,0,1,0-3.539h24.778a1.77,1.77,0,0,1,0,3.539" transform="translate(-130.329 -32.119)" fill="#5db69f"/><path d="M233.738,106.054h-17.7a1.77,1.77,0,1,1,0-3.539h17.7a1.77,1.77,0,0,1,0,3.539" transform="translate(-130.329 -32.119)" fill="#5db69f"/><path d="M208.96,106.054a1.848,1.848,0,0,1-1.256-.513,1.794,1.794,0,0,1,0-2.513,1.77,1.77,0,0,1,3.026,1.256,1.823,1.823,0,0,1-.513,1.256,1.88,1.88,0,0,1-1.256.513" transform="translate(-130.329 -32.119)" fill="#5db69f"/><path d="M224.89,97.2H208.96a1.77,1.77,0,1,1,0-3.539h15.93a1.77,1.77,0,1,1,0,3.539" transform="translate(-130.329 -32.119)" fill="#5db69f"/><path d="M233.738,97.2a1.777,1.777,0,1,1,1.77-1.77,1.822,1.822,0,0,1-.513,1.256,1.848,1.848,0,0,1-1.256.513" transform="translate(-130.329 -32.119)" fill="#5db69f"/><path d="M233.738,88.353H208.96a1.77,1.77,0,1,1,0-3.539h24.778a1.77,1.77,0,1,1,0,3.539" transform="translate(-130.329 -32.119)" fill="#5db69f"/><rect x="22" y="91" width="92" height="3.202" fill="#5db69f"/><rect x="82.468" y="86.826" width="13.862" height="18.96" fill="#fff"/><path d="M228.429,144.983l-8.852-6.634-8.848,6.634V118.152l1.433-.283a58.058,58.058,0,0,1,14.6-1.1l1.667,0.1v28.115Zm-8.852-11.061,5.313,3.983V120.237a54.716,54.716,0,0,0-10.622.839v16.829Z" transform="translate(-130.329 -32.119)" fill="#5db69f"/><path d="M152.329,74.119a20,20,0,1,1,20-20A20.023,20.023,0,0,1,152.329,74.119Z" transform="translate(-130.329 -32.119)" fill="#fff"/><path d="M152.329,36.119a18,18,0,1,1-18,18,18,18,0,0,1,18-18m0-4a22,22,0,1,0,22,22,22.025,22.025,0,0,0-22-22h0Z" transform="translate(-130.329 -32.119)" fill="#313466"/><path d="M158.342,61.471a1.531,1.531,0,0,1,.452,1.128,1.443,1.443,0,0,1-.452,1.082,1.546,1.546,0,0,1-1.126.438h-9.578a1.5,1.5,0,0,1-1.155-.452,1.612,1.612,0,0,1-.422-1.155,1.743,1.743,0,0,1,.507-1.238l6.141-6.563a10.941,10.941,0,0,0,1.646-2.268,4.533,4.533,0,0,0,.607-2.1,3.055,3.055,0,0,0-.9-2.2,2.822,2.822,0,0,0-2.084-.93,2.974,2.974,0,0,0-1.648.55,6.05,6.05,0,0,0-1.506,1.45,1.554,1.554,0,0,1-1.3.676,1.648,1.648,0,0,1-1.142-.479,1.423,1.423,0,0,1-.52-1.071,1.576,1.576,0,0,1,.28-0.859,6.389,6.389,0,0,1,.846-1,8.515,8.515,0,0,1,2.478-1.718,6.484,6.484,0,0,1,2.705-.648,6.576,6.576,0,0,1,3.267.789,5.491,5.491,0,0,1,2.171,2.17,6.37,6.37,0,0,1,.759,3.126,7.84,7.84,0,0,1-.915,3.536,15.036,15.036,0,0,1-2.464,3.478l-3.578,3.805h5.8A1.528,1.528,0,0,1,158.342,61.471Z" transform="translate(-130.329 -32.119)" fill="#313466"/></svg>