<svg id="Camada_1" data-name="Camada 1" xmlns="http://www.w3.org/2000/svg" viewBox="0 0 105.699 98.149"><title>ic-3</title><path d="M287.869,74.119a20,20,0,1,1,20-20A20.023,20.023,0,0,1,287.869,74.119Z" transform="translate(-265.869 -32.119)" fill="#fff"/><path d="M287.869,36.119a18,18,0,1,1-18,18,18,18,0,0,1,18-18m0-4a22,22,0,1,0,22,22,22.025,22.025,0,0,0-22-22h0Z" transform="translate(-265.869 -32.119)" fill="#313466"/><path d="M291.741,52.231a5.573,5.573,0,0,1,1.845,2.212,6.7,6.7,0,0,1,.649,2.916,6.776,6.776,0,0,1-.931,3.59,6.055,6.055,0,0,1-2.618,2.352,8.957,8.957,0,0,1-3.945.818,8.31,8.31,0,0,1-2.029-.254,7.261,7.261,0,0,1-1.774-.676,1.7,1.7,0,0,1-1.041-1.52,1.864,1.864,0,0,1,.479-1.24,1.463,1.463,0,0,1,1.153-.564,2.27,2.27,0,0,1,1.213.422,4.282,4.282,0,0,0,2.675.931,3.4,3.4,0,0,0,2.943-1.7,3.665,3.665,0,0,0,.493-1.9,3.062,3.062,0,0,0-.915-2.366,3.143,3.143,0,0,0-2.212-.846,3.927,3.927,0,0,0-.986.112c-0.282.076-.449,0.124-0.507,0.142a4.251,4.251,0,0,1-1.21.225,1.215,1.215,0,0,1-.986-0.436,1.626,1.626,0,0,1-.367-1.084,1.7,1.7,0,0,1,.14-0.706,2.665,2.665,0,0,1,.479-0.674l4.367-4.761H283.08a1.539,1.539,0,0,1-1.577-1.577,1.446,1.446,0,0,1,.449-1.084,1.556,1.556,0,0,1,1.128-.438H291.7a1.722,1.722,0,0,1,1.3.465,1.684,1.684,0,0,1,.452,1.224,1.95,1.95,0,0,1-.676,1.352l-3.775,4.17A4.953,4.953,0,0,1,291.741,52.231Z" transform="translate(-265.869 -32.119)" fill="#313466"/><path d="M309.282,77.305a12.26,12.26,0,1,0,12.26,12.26A12.283,12.283,0,0,0,309.282,77.305Zm0,20a7.748,7.748,0,1,1,7.748-7.748A7.756,7.756,0,0,1,309.282,97.309Z" transform="translate(-265.869 -32.119)" fill="#5db69f" stroke="#fff" stroke-miterlimit="10"/><path d="M315.943,103.567a2.021,2.021,0,0,0-1.834,1.187l-4.9,9.152-4.923-9.157a3.007,3.007,0,0,0-2.4-1.187c-6.95,0-13,5.652-13,12.585v10.757c0,1.246,1.874,2.863,3.124,2.863H326.57c1.247,0,1.657-1.613,1.657-2.863V116.148A12.349,12.349,0,0,0,315.943,103.567Zm7.913,21.83h-30.6v-9.245c0-4,3.432-7.334,7.274-7.957l6.511,11.542a2.369,2.369,0,0,0,4.1,0l6.1-11.542a7.935,7.935,0,0,1,6.616,7.957V125.4h0Z" transform="translate(-265.869 -32.119)" fill="#5db69f" stroke="#fff" stroke-miterlimit="10"/><path d="M354,62.212a6.648,6.648,0,0,0-12.571-1.144,2.259,2.259,0,0,0,4.132,1.827,2.142,2.142,0,0,1,4.035.337,2.176,2.176,0,0,1-1.135,2.45c-3.347,1.811-3.184,5.81-3.184,5.81a2.258,2.258,0,1,0,4.515,0,1.943,1.943,0,0,1,.658-1.759A6.743,6.743,0,0,0,354,62.212Z" transform="translate(-265.869 -32.119)" fill="#5db69f" stroke="#fff" stroke-miterlimit="10"/><path d="M347.509,75.718a2.257,2.257,0,0,0-2.259,2.258V79.5a2.258,2.258,0,0,0,4.516,0v-1.52A2.254,2.254,0,0,0,347.509,75.718Z" transform="translate(-265.869 -32.119)" fill="#5db69f" stroke="#fff" stroke-miterlimit="10"/><path d="M347.684,49.768c-12.887,0-23.389,8.819-23.389,19.675a17.879,17.879,0,0,0,6.31,13.429L329.114,93.5a2.23,2.23,0,0,0,3.424,2.241l11.189-6.915a27.378,27.378,0,0,0,3.953.291c12.887,0,23.388-8.82,23.388-19.675S360.588,49.768,347.684,49.768Zm0,34.815a16.378,16.378,0,0,1-4.035-.35c-1.409-.35-9.383,5.139-9.383,5.139l0.991-7.108a2.278,2.278,0,0,0-.833-2.083,13.736,13.736,0,0,1-5.6-10.757c0-8.358,8.469-15.158,18.859-15.158s18.858,6.8,18.858,15.158C366.56,77.8,358.091,84.583,347.684,84.583Z" transform="translate(-265.869 -32.119)" fill="#5db69f" stroke="#fff" stroke-miterlimit="10"/></svg>