<svg id="Camada_1" data-name="Camada 1" xmlns="http://www.w3.org/2000/svg" viewBox="0 0 133.369 89.034"><title>ic-4</title><path d="M423.408,74.119a20,20,0,1,1,20-20A20.023,20.023,0,0,1,423.408,74.119Z" transform="translate(-401.408 -32.119)" fill="#fff"/><path d="M423.408,36.119a18,18,0,1,1-18,18,18,18,0,0,1,18-18m0-4a22,22,0,1,0,22,22,22.025,22.025,0,0,0-22-22h0Z" transform="translate(-401.408 -32.119)" fill="#313466"/><path d="M429.274,55.91a1.474,1.474,0,0,1,.435,1.085,1.4,1.4,0,0,1-.435,1.047,1.5,1.5,0,0,1-1.085.42h-1.14v3.5a1.623,1.623,0,0,1-1.657,1.657,1.519,1.519,0,0,1-1.14-.475,1.635,1.635,0,0,1-.462-1.182v-3.5h-7.057a1.624,1.624,0,0,1-1.113-.475,1.484,1.484,0,0,1-.515-1.126,1.649,1.649,0,0,1,.406-1.085l8.577-10.5a1.648,1.648,0,0,1,1.358-.652,1.534,1.534,0,0,1,1.14.475,1.635,1.635,0,0,1,.462,1.182v9.2h1.14A1.474,1.474,0,0,1,429.274,55.91Zm-9.88-.435h4.4V50.048Z" transform="translate(-401.408 -32.119)" fill="#313466"/><path d="M484.131,108.862a3.089,3.089,0,0,0,4.343,0l9.808-9.707a3.034,3.034,0,0,0,0-4.3l-9.808-9.714a3.1,3.1,0,0,0-4.343,0,3.493,3.493,0,0,0,0,4.664l4.408,4.722h-11.73c-1.707,0-3.195.649-3.195,2.354v0.2a3.279,3.279,0,0,0,3.192,3.2H488.58l-4.45,4.336A2.966,2.966,0,0,0,484.131,108.862Z" transform="translate(-401.408 -32.119)" fill="#5db69f"/><path d="M461.479,117.646L452,75.193a2.879,2.879,0,0,0-5.631.062l-8.531,42.453a2.878,2.878,0,0,0,5.644,1.133l1.993-9.92h8.161l2.231,9.983a2.878,2.878,0,0,0,2.806,2.249,2.956,2.956,0,0,0,.63-0.069A2.88,2.88,0,0,0,461.479,117.646Zm-14.852-14.482,2.708-13.474,3.009,13.474h-5.718Z" transform="translate(-401.408 -32.119)" fill="#5db69f"/><path d="M520.846,121.1a26.47,26.47,0,0,1-6.224-.756,2.878,2.878,0,0,1-2.151-2.786V74.383a2.879,2.879,0,0,1,3.152-2.865c12.468,1.19,15.8,8.692,15.8,12.939,0,5.692-2.55,8.977-4.69,10.731l-0.066.055a14.958,14.958,0,0,1,8.115,12.959c0,5.546-2.39,8.558-4.4,10.108A15.549,15.549,0,0,1,520.846,121.1Zm-2.621-5.938c2.608,0.325,6.4.328,8.643-1.412,1.446-1.122,2.15-2.937,2.15-5.546a7.712,7.712,0,0,0-2.367-5.808c-2.4-2.34-6.113-3.362-8.426-3.76v16.527Zm0-37.3v14.85a9.926,9.926,0,0,0,5-2.1,7.635,7.635,0,0,0,2.441-6.158C525.662,80.555,521.349,78.7,518.226,77.864Z" transform="translate(-401.408 -32.119)" fill="#5db69f"/></svg>