<!-- Generator: Adobe Illustrator 19.2.1, SVG Export Plug-In  -->
<svg version="1.1"
	 xmlns="http://www.w3.org/2000/svg" xmlns:xlink="http://www.w3.org/1999/xlink" xmlns:a="http://ns.adobe.com/AdobeSVGViewerExtensions/3.0/"
	 x="0px" y="0px" width="331.142px" height="105.858px" viewBox="0 0 331.142 105.858"
	 style="enable-background:new 0 0 331.142 105.858;" xml:space="preserve">
<style type="text/css">
	.st0{fill:#6DC1AF;}
	.st1{fill:#FFFFFF;}
	.st2{fill:#4B4B4B;}
	.st3{fill:#28376E;}
</style>
<defs>
</defs>
<g>
	<g>
		<g>
			<g>
				<path class="st0" d="M291.7,23.058c-12.1,0-22,9.8-22,22c0,4,1.1,7.7,2.9,11c5.4,9.7,6.8,15.2,7.7,20.5c0.7,4.4,1.8,5.5,5.1,5.5
					c1.4,0,3.8,0,6.2,0c2.5,0,4.8,0,6.2,0c3.4,0,4.4-1,5.1-5.5c0.9-5.3,2.3-10.8,7.7-20.5c1.8-3.3,2.9-7,2.9-11
					C313.7,32.958,303.8,23.058,291.7,23.058z"/>
			</g>
		</g>
		<g>
			<path class="st0" d="M10.7,63.958H5.1v9.9c0,1.4-1.1,2.5-2.6,2.5c-1.4,0-2.5-1.1-2.5-2.5v-26.9c0-1.4,1.1-2.5,2.5-2.5l0,0h8.1
				c5.4,0,9.8,4.4,9.8,9.8C20.5,59.558,16.1,63.958,10.7,63.958z M5.1,58.858h5.6c2.6,0,4.7-2.1,4.7-4.6c0-2.6-2.1-4.7-4.7-4.7H5.1
				V58.858z"/>
			<path class="st0" d="M26.2,73.858v-26.9c0-1.4,1.1-2.5,2.5-2.5s2.6,1.1,2.6,2.5v24.3h12.3c1.3,0,2.5,1.1,2.5,2.6
				c0,1.4-1.2,2.5-2.5,2.5H28.8c-0.1,0-0.1,0-0.1,0l0,0C27.3,76.358,26.2,75.158,26.2,73.858z"/>
			<path class="st0" d="M60.8,76.358c-7.3,0-13.2-5.9-13.2-13.2v-16.2c0-1.4,1.1-2.5,2.5-2.5s2.6,1.1,2.6,2.5v16.2
				c0,4.5,3.6,8.1,8.1,8.1s8.1-3.6,8.1-8.1v-16.2c0-1.4,1.1-2.5,2.6-2.5c1.4,0,2.5,1.1,2.5,2.5v16.2
				C74,70.458,68.1,76.358,60.8,76.358z"/>
			<path class="st0" d="M78.5,59.958c0-9.2,7.6-16.5,16.8-16.5c3.9,0,7.6,1.3,10.4,3.6c1.2,0.9,1.4,2.6,0.5,3.7s-2.6,1.3-3.7,0.4
				c-2-1.5-4.5-2.5-7.2-2.5c-3.3,0-6.2,1.2-8.2,3.3c-2.1,2.1-3.4,4.8-3.4,7.9c0,3,1.3,5.8,3.4,7.8c2.1,2.1,4.9,3.3,8.2,3.3
				c2.3,0,4.4-0.7,6.2-1.7v-6.2H95c-1.4,0-2.6-1.2-2.6-2.6c0-1.5,1.2-2.6,2.6-2.6h9l0,0l0,0c1.5,0,2.6,1.1,2.6,2.6v10.2
				c0,0.3-0.1,0.5-0.1,0.8c0,0.1,0,0.1-0.1,0.2l0,0c-0.1,0.4-0.4,0.8-0.9,1.1c-2.9,2.2-6.5,3.6-10.3,3.6
				C86.1,76.358,78.5,69.058,78.5,59.958z"/>
			<path class="st0" d="M128.9,68.858h-11.1l-2.2,5.9c-0.4,1-1.4,1.6-2.4,1.6c-0.3,0-0.6,0-0.9-0.1c-1.3-0.5-2-2-1.5-3.3l10.1-26.8
				c0.4-1,1.4-1.6,2.4-1.6s2,0.6,2.4,1.6l10.1,26.8c0.5,1.3-0.2,2.8-1.5,3.3c-0.2,0.1-0.5,0.1-0.9,0.1c-1,0-2-0.6-2.3-1.6
				L128.9,68.858z M127.1,63.858l-3.7-9.8l-3.7,9.8H127.1z"/>
		</g>
	</g>
	<g>
		<path class="st1" d="M275.5,46.158c-0.9,0-1.7-0.7-1.7-1.7c0-5.8,2.9-11.1,7.9-14.2c0.8-0.5,1.8-0.3,2.3,0.5s0.3,1.8-0.5,2.3
			c-3.9,2.5-6.3,6.8-6.3,11.4C277.1,45.458,276.4,46.158,275.5,46.158z"/>
	</g>
	<g>
		<g>
			<g>
				<path class="st2" d="M44.3,87.058c0-0.3,0.2-0.5,0.5-0.5s0.5,0.2,0.5,0.5v14.1c0,0.3-0.2,0.5-0.5,0.5s-0.5-0.2-0.5-0.5V87.058z"
					/>
				<path class="st2" d="M47.9,88.058c0-0.3,0.2-0.5,0.5-0.5s0.5,0.2,0.5,0.5v0.5c0,0.3-0.2,0.6-0.5,0.6s-0.5-0.3-0.5-0.6V88.058z
					 M47.9,91.558c0-0.3,0.2-0.5,0.5-0.5s0.5,0.2,0.5,0.5v9.6c0,0.3-0.2,0.5-0.5,0.5s-0.5-0.2-0.5-0.5V91.558z"/>
				<path class="st2" d="M61.6,100.858c0,2.8-2.2,5-5,5c-0.8,0-1.5-0.2-2.2-0.5c-0.2-0.2-0.3-0.5-0.2-0.7c0.1-0.3,0.4-0.4,0.7-0.2
					c0.5,0.3,1.1,0.4,1.7,0.4c2.2,0,4-1.8,4-3.9v-1.3c-0.9,1.3-2.3,2.1-4,2.1c-2.8,0-5-2.4-5-5.3c0-2.9,2.2-5.3,5-5.3
					c1.6,0,3.1,0.8,4,2.1v-1.6c0-0.3,0.2-0.5,0.5-0.5s0.5,0.2,0.5,0.5V100.858z M60.6,96.258c0-2.4-1.8-4.2-4-4.2s-3.9,1.9-3.9,4.2
					c0,2.4,1.8,4.3,3.9,4.3C58.8,100.558,60.6,98.658,60.6,96.258z"/>
				<path class="st2" d="M73.9,91.558v9.6c0,0.3-0.2,0.5-0.5,0.5s-0.5-0.2-0.5-0.5v-1.6c-0.9,1.3-2.4,2.1-4,2.1c-2.8,0-5-2.4-5-5.3
					c0-2.9,2.2-5.3,5-5.3c1.6,0,3.1,0.8,4,2.1v-1.6c0-0.3,0.2-0.5,0.5-0.5S73.9,91.258,73.9,91.558z M72.9,96.358
					c0-2.4-1.8-4.3-4-4.3s-4,1.9-4,4.3c0,2.4,1.8,4.3,4,4.3S72.9,98.758,72.9,96.358z"/>
				<path class="st2" d="M85.3,99.558c-0.9,1.3-2.4,2.1-4.1,2.1c-2.9,0-5.1-2.4-5.1-5.3c0-2.9,2.3-5.3,5.1-5.3
					c1.7,0,3.1,0.8,4.1,2.1v-6.1c0-0.3,0.2-0.5,0.5-0.5s0.5,0.2,0.5,0.5v9.1v0.2v4.8c0,0.3-0.2,0.5-0.5,0.5s-0.5-0.2-0.5-0.5V99.558
					z M85.3,96.558v-0.3c-0.1-2.3-1.9-4.1-4.1-4.1c-2.2,0-4.1,1.9-4.1,4.3c0,2.3,1.8,4.2,4.1,4.2
					C83.4,100.558,85.2,98.758,85.3,96.558z"/>
				<path class="st2" d="M94,91.058c2.8,0,5,2.4,5,5.3s-2.2,5.3-5,5.3s-5-2.4-5-5.3S91.3,91.058,94,91.058z M94,100.658
					c2.2,0,4-1.9,4-4.3c0-2.4-1.8-4.3-4-4.3s-4,1.9-4,4.3S91.9,100.658,94,100.658z"/>
				<path class="st2" d="M113.9,95.358c0-1.8-1.5-3.3-3.3-3.3s-3.2,1.5-3.3,3.3v5.8v0.1c0,0.1,0,0.2-0.1,0.2
					c-0.1,0.1-0.2,0.2-0.4,0.2h-0.1c-0.2,0-0.3-0.2-0.3-0.3c0,0,0,0,0-0.1l0,0v-0.1v-5.8v-0.2v-3.6c0-0.3,0.2-0.5,0.5-0.5
					s0.5,0.2,0.5,0.5v1c0.8-0.9,2-1.5,3.3-1.5c2.4,0,4.3,1.9,4.3,4.3v5.8c0,0.3-0.2,0.5-0.5,0.5s-0.5-0.2-0.5-0.5v-5.8H113.9z"/>
				<path class="st2" d="M122.5,91.058c2.8,0,5,2.4,5,5.3s-2.2,5.3-5,5.3s-5-2.4-5-5.3S119.7,91.058,122.5,91.058z M122.5,100.658
					c2.2,0,4-1.9,4-4.3c0-2.4-1.8-4.3-4-4.3s-4,1.9-4,4.3S120.3,100.658,122.5,100.658z"/>
				<path class="st2" d="M134,96.358c0-2.9,2.4-5.3,5.5-5.3c1.3,0,2.4,0.4,3.4,1.2c0.2,0.2,0.3,0.5,0.1,0.7
					c-0.2,0.2-0.5,0.3-0.7,0.1c-0.8-0.6-1.7-1-2.7-1c-2.5,0-4.4,1.9-4.4,4.3c0,2.4,1.9,4.3,4.4,4.3c1,0,2-0.3,2.7-0.9
					c0.2-0.2,0.5-0.1,0.7,0.1c0.2,0.2,0.2,0.6-0.1,0.8c-0.9,0.7-2.1,1.1-3.3,1.1C136.4,101.658,134,99.358,134,96.358z"/>
				<path class="st2" d="M149.7,91.058c2.8,0,5,2.4,5,5.3s-2.2,5.3-5,5.3c-2.8,0-5-2.4-5-5.3S146.9,91.058,149.7,91.058z
					 M149.7,100.658c2.2,0,4-1.9,4-4.3c0-2.4-1.8-4.3-4-4.3c-2.2,0-4,1.9-4,4.3S147.5,100.658,149.7,100.658z"/>
				<path class="st2" d="M164.6,95.358c0-1.8-1.5-3.3-3.3-3.3s-3.2,1.5-3.3,3.3v5.8v0.1c0,0.1,0,0.2-0.1,0.2
					c-0.1,0.1-0.2,0.2-0.4,0.2h-0.1c-0.2,0-0.3-0.2-0.3-0.3c0,0,0,0,0-0.1l0,0v-0.1v-5.8v-0.2v-3.6c0-0.3,0.2-0.5,0.5-0.5
					s0.5,0.2,0.5,0.5v1c0.8-0.9,2-1.5,3.3-1.5c2.4,0,4.3,1.9,4.3,4.3v5.8c0,0.3-0.2,0.5-0.5,0.5s-0.5-0.2-0.5-0.5v-5.8H164.6z"/>
				<path class="st2" d="M176.5,95.258c0-1.9-1.5-3.1-3.4-3.1c-1.8,0-3.4,1.3-3.4,3.1v5.9v0.1v0.1v0.1c-0.1,0.1-0.2,0.2-0.3,0.3l0,0
					l0,0h-0.1c-0.2,0-0.3-0.1-0.4-0.2c0-0.1-0.1-0.1-0.1-0.2c0-0.1,0-0.1,0-0.2v-5.9v-0.2v-8c0-0.3,0.2-0.5,0.5-0.5s0.5,0.2,0.5,0.5
					v5.6c0.8-1,2-1.6,3.4-1.6c2.4,0,4.4,1.7,4.4,4.2v5.9c0,0.3-0.2,0.5-0.5,0.5s-0.5-0.2-0.5-0.5v-5.9H176.5z"/>
				<path class="st2" d="M179.6,96.358c0-2.9,2.3-5.3,5.2-5.3c2.7,0,4.9,2.2,5.1,4.9l0,0v0.1c0,0.3-0.2,0.5-0.5,0.5h-8.7
					c0.1,2.3,1.9,4.1,4.1,4.1c1.4,0,2.7-0.7,3.4-1.9c0.2-0.3,0.5-0.3,0.7-0.2c0.2,0.2,0.3,0.5,0.2,0.7c-0.9,1.5-2.5,2.4-4.3,2.4
					C181.9,101.658,179.6,99.258,179.6,96.358z M180.7,95.558h8c-0.3-2-2-3.4-4-3.4C182.8,92.058,181.1,93.558,180.7,95.558z"/>
				<path class="st2" d="M191.2,96.358c0-2.9,2.4-5.3,5.5-5.3c1.3,0,2.4,0.4,3.4,1.2c0.2,0.2,0.3,0.5,0.1,0.7
					c-0.2,0.2-0.5,0.3-0.7,0.1c-0.8-0.6-1.7-1-2.7-1c-2.5,0-4.4,1.9-4.4,4.3c0,2.4,1.9,4.3,4.4,4.3c1,0,2-0.3,2.7-0.9
					c0.2-0.2,0.5-0.1,0.7,0.1c0.2,0.2,0.2,0.6-0.1,0.8c-0.9,0.7-2.1,1.1-3.3,1.1C193.6,101.658,191.2,99.358,191.2,96.358z"/>
				<path class="st2" d="M202.7,88.058c0-0.3,0.2-0.5,0.5-0.5s0.5,0.2,0.5,0.5v0.5c0,0.3-0.2,0.6-0.5,0.6s-0.5-0.3-0.5-0.6V88.058z
					 M202.7,91.558c0-0.3,0.2-0.5,0.5-0.5s0.5,0.2,0.5,0.5v9.6c0,0.3-0.2,0.5-0.5,0.5s-0.5-0.2-0.5-0.5V91.558z"/>
				<path class="st2" d="M222.3,95.358c0-1.8-1.5-3.3-3.3-3.3s-3.3,1.5-3.3,3.3v5.8v0.1l0,0l0,0c0,0.1-0.2,0.2-0.3,0.3
					c-0.1,0-0.2,0.1-0.3,0.1H215l0,0l0,0c0,0-0.1,0-0.1-0.1c0,0,0,0-0.1,0l-0.1-0.1l0,0l0,0l0,0c0,0,0,0,0-0.1v-0.1l0,0v-5.8
					c0-1.8-1.5-3.3-3.3-3.3s-3.3,1.5-3.3,3.3v5.8c0,0.2-0.1,0.3-0.2,0.4l-0.1,0.1c0,0,0,0-0.1,0h-0.1h-0.1c-0.2,0-0.4-0.2-0.4-0.4
					v-0.1v-5.8v-0.2v-3.6c0-0.3,0.2-0.5,0.5-0.5s0.5,0.2,0.5,0.5v1c0.8-0.9,1.9-1.5,3.3-1.5c1.6,0,3.1,0.9,3.8,2.3
					c0.8-1.3,2.2-2.3,3.8-2.3c2.4,0,4.3,1.9,4.3,4.3v5.8c0,0.3-0.2,0.5-0.5,0.5s-0.5-0.2-0.5-0.5L222.3,95.358L222.3,95.358z"/>
				<path class="st2" d="M225.4,96.358c0-2.9,2.3-5.3,5.2-5.3c2.7,0,4.9,2.2,5.1,4.9l0,0v0.1c0,0.3-0.2,0.5-0.5,0.5h-8.7
					c0.1,2.3,1.9,4.1,4.1,4.1c1.4,0,2.7-0.7,3.4-1.9c0.2-0.3,0.5-0.3,0.7-0.2c0.2,0.2,0.3,0.5,0.2,0.7c-0.9,1.5-2.5,2.4-4.3,2.4
					C227.7,101.658,225.4,99.258,225.4,96.358z M226.5,95.558h8c-0.3-2-2-3.4-4-3.4C228.5,92.058,226.9,93.558,226.5,95.558z"/>
				<path class="st2" d="M245.3,95.358c0-1.8-1.5-3.3-3.3-3.3s-3.2,1.5-3.3,3.3v5.8v0.1c0,0.1,0,0.2-0.1,0.2
					c-0.1,0.1-0.2,0.2-0.4,0.2h-0.1c-0.2,0-0.3-0.2-0.3-0.3c0,0,0,0,0-0.1l0,0v-0.1v-5.8v-0.2v-3.6c0-0.3,0.2-0.5,0.5-0.5
					s0.5,0.2,0.5,0.5v1c0.8-0.9,2-1.5,3.3-1.5c2.4,0,4.3,1.9,4.3,4.3v5.8c0,0.3-0.2,0.5-0.5,0.5s-0.5-0.2-0.5-0.5v-5.8H245.3z"/>
				<path class="st2" d="M253,91.558c0,0.3-0.3,0.5-0.5,0.5h-1.4v7.7c0,0.5,0.5,0.8,0.8,0.8s0.5,0.3,0.5,0.5c0,0.3-0.3,0.5-0.5,0.5
					c-1.1,0-1.9-0.8-1.9-1.8v-7.7h-1.3c-0.5,0-0.5-0.3-0.5-0.5c0-0.3,0-0.5,0.5-0.5h1.3v-3.9c0-0.3,0.3-0.5,0.5-0.5
					c0.3,0,0.6,0.3,0.6,0.5v3.9h1.4C252.8,91.058,253,91.258,253,91.558z"/>
				<path class="st2" d="M260.6,91.058c2.8,0,5,2.4,5,5.3s-2.2,5.3-5,5.3s-5-2.4-5-5.3S257.8,91.058,260.6,91.058z M260.6,100.658
					c2.2,0,4-1.9,4-4.3c0-2.4-1.8-4.3-4-4.3s-4,1.9-4,4.3S258.4,100.658,260.6,100.658z"/>
			</g>
		</g>
	</g>
	<g>
		<g>
			<g>
				<g>
					<path class="st3" d="M299.5,83.658h-15.7c-0.7,0-1.2,0.5-1.2,1.2v0.8c0,0.6,0.5,1.2,1.2,1.2h15.7c0.6,0,1.2-0.5,1.2-1.2v-0.8
						C300.7,84.158,300.1,83.658,299.5,83.658z"/>
				</g>
				<g>
					<path class="st3" d="M299.5,88.358h-15.7c-0.7,0-1.2,0.5-1.2,1.2v0.8c0,0.6,0.5,1.2,1.2,1.2h15.7c0.6,0,1.2-0.5,1.2-1.2v-0.8
						C300.7,88.858,300.1,88.358,299.5,88.358z"/>
				</g>
				<g>
					<path class="st3" d="M299.5,93.058h-15.7c-0.7,0-1.2,0.5-1.2,1.2v0.8c0,0.7,0.5,1.2,1.2,1.2h15.7c0.6,0,1.2-0.5,1.2-1.2v-0.8
						C300.7,93.558,300.1,93.058,299.5,93.058z"/>
				</g>
				<g>
					<path class="st3" d="M291.6,101.658c2.8,0,5.9-1.6,5.9-3.9h-11.8C285.7,100.158,288.9,101.658,291.6,101.658z"/>
				</g>
			</g>
			<g>
				<g>
					<path class="st3" d="M276.7,0.158c-1.2,0.4-2.2,1.6-1.7,3.2l0,0l5.3,16l4.9-1.6l-5.3-16C279.4,0.058,278-0.242,276.7,0.158z"/>
				</g>
				<g>
					<path class="st3" d="M307.2,0.158c1.2,0.4,2.2,1.6,1.7,3.2l0,0l-5.3,16l-4.9-1.6l5.3-16C304.5,0.058,306-0.242,307.2,0.158z"/>
				</g>
				<g>
					<path class="st3" d="M256.6,16.858v-0.2c-0.3-0.2-0.7-0.3-1-0.3c-1-0.1-1.8,0.4-2.3,1.2c-0.7,1-0.9,2.6,0.5,3.5l13.3,9.5l3-4.2
						l-13.2-9.4L256.6,16.858z"/>
				</g>
				<g>
					<path class="st3" d="M327.3,16.858v-0.2c0.3-0.2,0.7-0.3,1-0.3c1-0.1,1.8,0.4,2.3,1.2c0.7,1,0.9,2.6-0.5,3.5l-13.3,9.5l-3-4.2
						l13.2-9.4L327.3,16.858z"/>
				</g>
			</g>
		</g>
		<g>
			<path class="st3" d="M143.4,59.758c0-9,7.6-16.4,16.7-16.4c4,0,7.7,1.3,10.5,3.6c1.1,0.9,1.3,2.5,0.5,3.6
				c-0.9,1.1-2.6,1.3-3.6,0.5c-2-1.6-4.5-2.5-7.3-2.5c-3.1,0-6.1,1.3-8.2,3.3c-2.1,2.1-3.3,4.8-3.3,7.9s1.3,5.9,3.3,7.9
				c2.1,2,5.1,3.3,8.2,3.3c2.8,0,5.3-0.9,7.3-2.5c1-0.8,2.7-0.6,3.6,0.5c0.8,1.1,0.6,2.8-0.5,3.6c-2.9,2.2-6.5,3.6-10.5,3.6
				C151,76.158,143.5,68.858,143.4,59.758z"/>
			<path class="st3" d="M190.1,76.158c-7.3,0-13.2-5.9-13.2-13.2v-16.2c0-1.4,1.1-2.5,2.5-2.5s2.6,1.1,2.6,2.5v16.2
				c0,4.5,3.6,8.1,8.1,8.1s8.1-3.6,8.1-8.1v-16.2c0-1.4,1.1-2.5,2.6-2.5c1.4,0,2.5,1.1,2.5,2.5v16.2
				C203.3,70.258,197.4,76.158,190.1,76.158z"/>
			<path class="st3" d="M208.1,59.758c0-9,7.6-16.4,16.7-16.4c4,0,7.7,1.3,10.5,3.6c1.1,0.9,1.3,2.5,0.5,3.6
				c-0.9,1.1-2.6,1.3-3.6,0.5c-2-1.6-4.5-2.5-7.3-2.5c-3.1,0-6.1,1.3-8.2,3.3c-2.1,2.1-3.3,4.8-3.3,7.9s1.3,5.9,3.3,7.9
				c2.1,2,5.1,3.3,8.2,3.3c2.8,0,5.3-0.9,7.3-2.5c1-0.8,2.7-0.6,3.6,0.5c0.8,1.1,0.6,2.8-0.5,3.6c-2.9,2.2-6.5,3.6-10.5,3.6
				C215.7,76.158,208.2,68.858,208.1,59.758z"/>
			<path class="st3" d="M258.9,68.658h-11.1l-2.2,5.9c-0.4,1-1.4,1.6-2.4,1.6c-0.3,0-0.6,0-0.9-0.1c-1.3-0.5-2-2-1.5-3.3l10.1-26.9
				c0.4-1,1.4-1.6,2.4-1.6s2,0.6,2.4,1.6l10.1,26.9c0.5,1.3-0.2,2.8-1.5,3.3c-0.2,0.1-0.5,0.1-0.9,0.1c-1,0-2-0.6-2.3-1.6
				L258.9,68.658z M257,63.658l-3.7-9.8l-3.7,9.8H257z"/>
		</g>
	</g>
</g>
</svg>