<!-- Generator: Adobe Illustrator 19.2.1, SVG Export Plug-In  -->
<svg version="1.1"
	 xmlns="http://www.w3.org/2000/svg" xmlns:xlink="http://www.w3.org/1999/xlink" xmlns:a="http://ns.adobe.com/AdobeSVGViewerExtensions/3.0/"
	 x="0px" y="0px" width="63.486px" height="69.765px" viewBox="0 0 63.486 69.765"
	 style="enable-background:new 0 0 63.486 69.765;" xml:space="preserve">
<style type="text/css">
	.st0{fill:#FFFFFF;}
</style>
<defs>
</defs>
<g>
	<path class="st0" d="M17.932,65.765c0.513,0,0.944-0.517,0.98-1.028l1.112-15.244c0.04-0.539-0.102-0.727-0.905-0.727
		c0,0-0.007,0-0.01,0c-0.246,0-0.882-0.205-1.038,0.737l-1.048,14.263H7.291L5.913,44.562c-0.037-0.51-0.47-0.797-0.984-0.797H3.868
		c-0.555,0-1.063-0.441-1.429-0.855c-0.366-0.413-0.53-1.05-0.463-1.602l1.853-14.11c0.3-2.396,2.346-4.432,4.76-4.432h7.132
		c0.364,0,2.076-0.271,2.371-0.597c0.944-1.04-0.15-1.376-0.405-1.443c-0.626-0.162-1.429,0.04-1.97,0.04H8.589
		c-3.401,0-6.284,2.277-6.707,5.653L0.029,41.087c-0.135,1.104,0.206,2.146,0.938,2.975c0.67,0.758,1.636,1.199,2.649,1.266
		l0.402,0.01l1.381,19.402c0.036,0.513,0.465,1.024,0.976,1.024H17.932z"/>
	<path class="st0" d="M45.554,65.765c-0.513,0-0.944-0.517-0.98-1.028l-1.112-15.244c-0.04-0.539,0.102-0.727,0.905-0.727
		c0,0,0.007,0,0.01,0c0.246,0,0.882-0.205,1.038,0.737l1.048,14.263h9.732l1.378-19.203c0.037-0.51,0.47-0.797,0.984-0.797h1.061
		c0.555,0,1.063-0.441,1.429-0.855c0.366-0.413,0.53-1.05,0.463-1.602l-1.853-14.11c-0.3-2.396-2.346-4.432-4.76-4.432h-7.132
		c-0.364,0-2.076-0.271-2.371-0.597c-0.944-1.04,0.15-1.376,0.405-1.443c0.626-0.162,1.429,0.04,1.97,0.04h7.129
		c3.401,0,6.284,2.277,6.707,5.653l1.853,14.669c0.135,1.104-0.206,2.146-0.938,2.975c-0.67,0.758-1.636,1.199-2.649,1.266
		l-0.402,0.01l-1.381,19.402c-0.036,0.513-0.465,1.024-0.976,1.024H45.554z"/>
	<path class="st0" d="M12.153,2.889c-3.728,0-6.762,3.034-6.762,6.762c0,3.727,3.034,6.76,6.762,6.76s6.761-3.033,6.761-6.76
		C18.914,5.923,15.882,2.889,12.153,2.889z M12.153,14.447c-2.645,0-4.796-2.152-4.796-4.795c0-2.646,2.152-4.797,4.796-4.797
		s4.795,2.152,4.795,4.797C16.949,12.295,14.798,14.447,12.153,14.447z"/>
	<path class="st0" d="M52.604,2.889c-3.728,0-6.762,3.034-6.762,6.762c0,3.727,3.034,6.76,6.762,6.76s6.761-3.033,6.761-6.76
		C59.365,5.923,56.332,2.889,52.604,2.889z M52.604,14.447c-2.645,0-4.796-2.152-4.796-4.795c0-2.646,2.152-4.797,4.796-4.797
		s4.795,2.152,4.795,4.797C57.399,12.295,55.249,14.447,52.604,14.447z"/>
	<path class="st0" d="M32.129,0c-3.727,0-6.76,3.033-6.76,6.761s3.033,6.761,6.76,6.761c3.728,0,6.762-3.033,6.762-6.761
		S35.857,0,32.129,0z M32.129,11.557c-2.644,0-4.795-2.152-4.795-4.796s2.152-4.796,4.795-4.796c2.646,0,4.797,2.152,4.797,4.796
		S34.774,11.557,32.129,11.557z"/>
	<path class="st0" d="M44.04,41.731l-1.853-16.465c-0.319-2.858-2.038-5.091-4.323-5.981c-0.094-0.399-2.19-0.52-2.731-0.52h-6.781
		c-0.542,0-2.638,0.121-2.731,0.52c-2.285,0.89-4.004,3.086-4.323,5.944l-1.853,16.484c-0.135,1.239,0.206,2.419,0.938,3.349
		c0.67,0.851,1.636,1.351,2.649,1.427l0.402,0.014l1.381,21.942c0.036,0.575,0.465,1.319,0.976,1.319h11.557
		c0.105,0,0.346,0,0.346,0c0.511,0,0.94-0.743,0.976-1.318l1.381-21.941l0.402-0.012c1.013-0.076,1.979-0.571,2.649-1.422
		C43.834,44.141,44.176,42.97,44.04,41.731z M41.63,43.793c-0.367,0.465-0.874,0.972-1.429,0.972H39.14
		c-0.515,0-0.947,0.602-0.984,1.174l-1.378,21.826h-0.339h-9.732L25.33,45.939c-0.037-0.572-0.47-1.174-0.984-1.174h-1.061
		c-0.555,0-1.063-0.507-1.429-0.972c-0.366-0.463-0.53-1.184-0.463-1.804l1.853-16.042c0.3-2.689,2.346-5.182,4.76-5.182h0.344
		h6.789h0.344c2.414,0,4.46,2.498,4.76,5.187l1.853,16.038C42.16,42.609,41.996,43.33,41.63,43.793z"/>
</g>
</svg>