<!-- Generator: Adobe Illustrator 19.2.1, SVG Export Plug-In  -->
<svg version="1.1"
	 xmlns="http://www.w3.org/2000/svg" xmlns:xlink="http://www.w3.org/1999/xlink" xmlns:a="http://ns.adobe.com/AdobeSVGViewerExtensions/3.0/"
	 x="0px" y="0px" width="400px" height="400px" viewBox="0 0 400 400" style="enable-background:new 0 0 400 400;"
	 xml:space="preserve">
<style type="text/css">
	.st0{fill:#FFFFFF;}
</style>
<defs>
</defs>
<path class="st0" d="M377.923,0h-16.061H114.573H22.077C9.882,0,0,9.882,0,22.077v355.846C0,390.115,9.882,400,22.077,400h92.496
	h99.079h62.34h85.869h16.061c12.192,0,22.077-9.885,22.077-22.077V22.077C400,9.882,390.115,0,377.923,0z M299.412,149.022
	c0.102,2.199,0.147,4.41,0.147,6.631c0,67.775-51.592,145.936-145.936,145.936c-28.971,0-55.923-8.492-78.623-23.039
	c4.015,0.474,8.097,0.71,12.236,0.71c24.031,0,46.146-8.198,63.704-21.956c-22.453-0.418-41.387-15.247-47.916-35.625
	c3.124,0.598,6.338,0.925,9.642,0.925c4.68,0,9.213-0.632,13.521-1.804c-23.467-4.703-41.15-25.441-41.15-50.285
	c0-0.225,0-0.44,0.011-0.654c6.913,3.845,14.818,6.157,23.231,6.416c-13.769-9.19-22.825-24.899-22.825-42.694
	c0-9.394,2.537-18.201,6.947-25.779c25.294,31.034,63.095,51.446,105.722,53.589c-0.88-3.755-1.331-7.669-1.331-11.695
	c0-28.316,22.971-51.288,51.299-51.288c14.75,0,28.08,6.236,37.44,16.205c11.683-2.301,22.655-6.575,32.568-12.45
	c-3.834,11.976-11.965,22.024-22.554,28.373c10.375-1.24,20.265-3.992,29.456-8.074C318.132,132.75,309.426,141.783,299.412,149.022
	z"/>
</svg>